<svg xmlns="http://www.w3.org/2000/svg" width="71" height="70" viewBox="0 0 71 70">
  <g id="Layer_2" data-name="Layer 2" transform="translate(0.01)">
    <g id="Layer_1" data-name="Layer 1" transform="translate(-0.01)">
      <path id="Path_1" data-name="Path 1" d="M129.581,135.3a5.755,5.755,0,0,0,2.04-1.894,15.556,15.556,0,0,0,2.052-3.8,5.41,5.41,0,0,0-.793-5.239,6.447,6.447,0,0,0-5.532-2.294,8.875,8.875,0,0,0-5.453,2.89,24.25,24.25,0,0,0-4.173,6.371,16.474,16.474,0,0,0-1.847,7.41c.1,4.446,3.066,8.978,7.879,9.065a6.613,6.613,0,0,0,5.769-3.413c1.383-2.118,2.782-4.655,1.864-7.231,0,0-1.013,1.38-1.1,1.526-.2.343-.926,1.284-.773,1.713a4.843,4.843,0,0,1,.248,2.328,7.4,7.4,0,0,1-.248,1.006c-.2.722,1.279-1.643.525-.959-.176.166-.333.333-.512.5a6.081,6.081,0,0,1-4.667,1.245,8.335,8.335,0,0,1-6.8-6.576,12.007,12.007,0,0,1,.068-5.6,8.712,8.712,0,0,1,1.756-3.879c2.146-2.479,5.517-4.01,8.711-2.66a5.791,5.791,0,0,1,3.36,3.6,5.059,5.059,0,0,1,.055,2.467c-.038.178-.121.357-.153.535.228-1.32,1.209-1.691.484-1a4.454,4.454,0,0,1-1.044.718c-.185.095-.434.545-.527.688-.264.4-.51.816-.737,1.239-.1.185-.612,1.33-.454,1.247Z" transform="translate(-96.781 -102.049)" fill="#ec6568"/>
      <path id="Path_2" data-name="Path 2" d="M168.1,203.313a206.7,206.7,0,0,1,21.934-2.895c.391-.03.928-1.23,1.1-1.526.081-.14.775-1.713.773-1.713a207.138,207.138,0,0,0-21.933,2.893c-.422.08-.9,1.192-1.1,1.528a11.227,11.227,0,0,0-.614,1.164,2.484,2.484,0,0,0-.166.54Z" transform="translate(-140.424 -164.729)" fill="#ec6568"/>
      <path id="Path_3" data-name="Path 3" d="M232.7,202.864l2.875,14.859s.823-1.066.843-1.1a8.874,8.874,0,0,0,.983-1.874l.145-.461c.221-.7-.5.361-.557.454a9.542,9.542,0,0,0-1.22,2.25l-.146.461,1.829-2.971-2.883-14.859c-.013-.065-.457.5-.389.409a11.5,11.5,0,0,0-.708,1.117c-.234.406-.871,1.21-.773,1.714Z" transform="translate(-194.283 -166.843)" fill="#ec6568"/>
      <path id="Path_4" data-name="Path 4" d="M294.169,32.269a36.181,36.181,0,0,0-3.106-4.293l-.87-1c-.3-.318-.609-.633-.911-.951-.15-.166-.308-.311-.467-.461l-.476-.452c-.166-.148-.314-.3-.477-.447l-.5-.426c-.647-.58-1.33-1.1-2.015-1.624l-1.046-.742c-.166-.126-.354-.236-.53-.351l-.535-.341c-.178-.113-.353-.231-.534-.333l-.545-.313-.542-.309c-.09-.052-.18-.1-.271-.155l-.276-.14-1.1-.564-1.109-.5a33.917,33.917,0,0,1,6.68,3.879,36.485,36.485,0,0,0-4.655-2.943l-.6-.311-.3-.158c-.1-.05-.2-.095-.306-.143l-1.242-.575-1.3-.534c-.442-.175-.9-.323-1.367-.5.288.078.653.191,1.052.319s.811.306,1.219.459c.2.08.4.148.587.231l.515.223a7.635,7.635,0,0,0,.73.278A33.1,33.1,0,0,1,297.5,40.071c-.63-1.716-1.132-3.1-1.654-4.336-.131-.309-.239-.62-.377-.911l-.4-.871c-.066-.143-.133-.286-.2-.429l-.224-.417C294.486,32.828,294.33,32.55,294.169,32.269Z" transform="translate(-230.415 -14.665)" fill="#ec6568"/>
      <path id="Path_5" data-name="Path 5" d="M213.63,7.17l1.417.033c.116,0,.233,0,.349.01l.347.025.688.053-.728-.05-.359-.023h-.356C214.523,7.2,214.061,7.188,213.63,7.17Z" transform="translate(-178.362 -5.978)" fill="#ec6568"/>
      <path id="Path_6" data-name="Path 6" d="M246.807,410.28l-.811.2c-.271.067-.542.133-.815.18l-.815.151c-.269.048-.537.1-.806.133.271-.033.539-.093.808-.143l.813-.153c.274-.045.544-.11.815-.175Z" transform="translate(-203.353 -342.721)" fill="#ec6568"/>
      <path id="Path_7" data-name="Path 7" d="M410.95,175c.133.562.2,1.141.289,1.724a34.109,34.109,0,0,1-1.149,13.313,33.206,33.206,0,0,0,1.24-7.467A38.385,38.385,0,0,0,410.95,175Z" transform="translate(-342.394 -146.247)" fill="#ec6568"/>
      <path id="Path_8" data-name="Path 8" d="M377.663,87.752a36.014,36.014,0,0,0-2.687-6.242,36.974,36.974,0,0,0-3.7-5.51A35.506,35.506,0,0,1,377.663,87.752Z" transform="translate(-310.036 -63.505)" fill="#ec6568"/>
      <path id="Path_9" data-name="Path 9" d="M47.007,342.424c0,.028-.075-.023-.18-.106s-.2-.176-.284-.241a36.007,36.007,0,0,1-3.723-4.306c.3.364.6.685.894,1.061.321.412.6.728.831,1.021l.333.411c.108.13.221.249.333.374.223.248.454.5.733.79S46.574,342.028,47.007,342.424Z" transform="translate(-35.699 -282.267)" fill="#ec6568"/>
      <path id="Path_10" data-name="Path 10" d="M270.28,406.192l.11-.042c.366-.11.728-.209,1.079-.342l.13-.038c-.216.075-.429.166-.652.226Z" transform="translate(-225.653 -338.961)" fill="#ec6568"/>
      <path id="Path_11" data-name="Path 11" d="M67.565,365.7a.389.389,0,0,0,.128.228c-.426-.333-.818-.7-1.222-1.052-.2-.181-.407-.351-.6-.542l-.575-.562c.1.083.193.166.269.224.135.118.283.256.441.406l.515.449.529.456A5.529,5.529,0,0,0,67.565,365.7Z" transform="translate(-54.441 -303.944)" fill="#ec6568"/>
      <path id="Path_12" data-name="Path 12" d="M194.469,417.588c.693-.018,1.3-.106,1.624-.133a35.249,35.249,0,0,0,5.653-.61c.314-.093,1-.243,1.614-.437.379-.078.788-.166,1.22-.268a35.763,35.763,0,0,1-14.141,1.242c.653.068,1.315.1,1.985.156C193.094,417.555,193.775,417.585,194.469,417.588Z" transform="translate(-159.045 -347.607)" fill="#ec6568"/>
      <path id="Path_13" data-name="Path 13" d="M34.38.026a38.6,38.6,0,0,0-4.6.417l-1.17.2L28.318.7l-.291.064-.584.13c-.783.165-1.55.387-2.323.6a30.236,30.236,0,0,0-8.367,3.953,34.061,34.061,0,0,1,4.816-2.477,35.322,35.322,0,0,1,5.076-1.647,21.239,21.239,0,0,1,6.334-.7c.251.059-.195.133-1.085.219l-1.631.212c-.317.038-.649.109-1,.165l-.537.091-.277.048-.279.059a35.988,35.988,0,0,0-4.756,1.318l-1.156.441c-.192.069-.376.153-.558.234l-.541.239-.533.234c-.165.074-.33.165-.5.245l-.926.471,1.266-.572c-.315.142-.632.285-.936.432-.152.074-.3.148-.446.224s-.276.165-.4.249c.155-.077.33-.173.512-.259l.6-.278.639-.3c.215-.1.442-.184.66-.275l.636-.257a6.079,6.079,0,0,1,.578-.216c.363-.119.66-.211.847-.257-.371.175-.746.338-1.111.522.414-.145.88-.29,1.372-.461.244-.089.5-.165.769-.24l.816-.24c.276-.089.565-.155.855-.227l.873-.222c.3-.076.6-.124.91-.189l.918-.183L29.49,1.7l.459-.069.229-.033.229-.023.9-.086c.3-.028.589-.059.878-.064l.844-.031c.274-.01.54-.023.8-.012.517.01.991.025,1.428.043A31.15,31.15,0,0,0,21.784,3.866,32.714,32.714,0,0,0,5.074,19.727l-.116.226-.1.231-.208.463c-.135.31-.284.613-.409.927l-.368.945-.183.473-.165.481-.32.96c-.1.329-.185.651-.277.975-.2.647-.33,1.31-.484,1.967-.081.329-.134.659-.192.988l-.165.988-.124,1c-.038.329-.092.659-.107,1s-.048.669-.071,1c-.01.165-.03.329-.031.494l-.01.494-.02,1c0,.329.017.659.025,1s.012.659.036.988.054.659.081.988l.04.494c.015.165.041.329.061.494l.13.978c.035.329.109.646.165.969s.117.642.177.962l.223.949c.076.315.139.633.236.941A32.046,32.046,0,0,0,6.216,50.9c.18.3.353.6.537.889l.575.86.286.428.3.441.611.824A32.152,32.152,0,0,0,17.374,62.2c.276.165.546.329.825.494l.84.451c.553.313,1.136.562,1.7.837.281.142.575.25.862.374l.865.357.875.315c.294.1.579.217.877.3l.774.249.459.15c.165.051.33.094.508.145l1.121.313,1.24.287a36.882,36.882,0,0,0,5.215.723,33.766,33.766,0,0,0,8.429-.73l1.025-.25c.165-.043.343-.079.512-.128l.505-.15,1.007-.3.991-.353.5-.176.484-.2.967-.4.944-.448.471-.224c.155-.079.307-.165.461-.245l.981-.516.956-.56c.157-.1.32-.181.474-.283l.462-.3c.307-.2.622-.394.921-.608l.895-.642.225-.165.215-.165.433-.343c.586-.441,1.126-.939,1.684-1.415a33.482,33.482,0,0,0,5.686-6.712l.3-.466c.1-.155.187-.318.282-.478.185-.321.371-.641.558-.962s.342-.659.513-.988c.084-.165.177-.329.253-.494l.233-.511a30.783,30.783,0,0,0,1.6-4.213c.1-.366.21-.73.315-1.1s.173-.741.261-1.113c.043-.186.091-.372.129-.56l.1-.567c.064-.379.145-.756.2-1.138s.1-.766.147-1.153l.036-.288.023-.292.045-.583c.076-.776.073-1.562.094-2.351,0-.315-.01-.644,0-.967s.008-.641,0-.932a10.7,10.7,0,0,1,.015-1.263c.028-.206.079-.14.165.369.036.254.094.619.135,1.117.013.25.028.534.045.852s.041.672.028,1.064a31.394,31.394,0,0,1-3.724,15.154,7.172,7.172,0,0,1,.309-.7c.074-.152.157-.329.244-.494s.165-.372.251-.568l.261-.59.13-.293c.041-.1.076-.2.112-.292.145-.384.274-.738.365-1.018a33.174,33.174,0,0,1-2.407,4.918,36.055,36.055,0,0,1-3.1,4.447,33.768,33.768,0,0,0,4.114-6.388L64.245,50.1c-.195.351-.4.7-.6,1.053s-.423.7-.644,1.043-.437.7-.685,1.031a31.673,31.673,0,0,1-3.193,3.915,33.847,33.847,0,0,1-8.2,6.324,25.144,25.144,0,0,1-3.485,1.482l-.959.341c-.33.105-.679.217-1.033.339s-.73.237-1.119.359-.792.272-1.227.389A32.642,32.642,0,0,0,64.511,50.022a.474.474,0,0,0-.015.046,32.771,32.771,0,0,0,3.615-11.326c-.04.31-.064.623-.116.931s-.1.616-.155.917c-.091.606-.244,1.181-.371,1.716l.262-1.064c.076-.357.14-.718.21-1.076l.1-.539c.033-.178.051-.361.079-.54L68.273,38a33.727,33.727,0,0,0-.165-8.7l-.188-1.071c-.035-.178-.058-.359-.1-.535l-.14-.539c-.083-.352-.157-.708-.246-1.059l-.3-1.048a31.847,31.847,0,0,1,1.308,6.076A32.716,32.716,0,0,1,64.92,49.91a33.557,33.557,0,0,1-8.137,10.114,33.99,33.99,0,0,1-11.089,6.213,29.378,29.378,0,0,0,7.048-3.191,44.418,44.418,0,0,0,5.821-4.406,33.369,33.369,0,0,1-15.069,8.325,32.546,32.546,0,0,1-5.809.9l.865-.084c.286-.028.566-.082.849-.124a38.7,38.7,0,0,1-7.467.041,32.24,32.24,0,0,1-7.294-1.552c-.409-.148-.825-.272-1.227-.445.4.173.816.3,1.227.445a33.516,33.516,0,0,0,13.042,1.718,29.968,29.968,0,0,1-6.647-.165l.533.092c.187.035.383.058.588.077l1.3.13c.457.028.934.043,1.421.066l.366.015h.37l.745-.008a33.281,33.281,0,0,0,7.706-1.12,35.93,35.93,0,0,1-11.469,1.184c.338.028.679.066,1.019.084l1.027.036.515.018c.165.008.343,0,.515,0l1.033-.018c.345,0,.688-.036,1.032-.056s.69-.046,1.035-.074L39.8,68l.517-.063c.165-.02.342-.056.512-.084l1.025-.176c.165-.026.34-.063.51-.1l.507-.114c.33-.079.677-.145,1.012-.236l1-.278c.165-.048.33-.091.5-.142l.5-.165.982-.329c.33-.117.644-.247.964-.369s.646-.24.956-.387c-.34.165-.7.292-1.045.433l-.522.213-.262.105-.267.092-1.07.366-.267.091-.272.079-.543.156c-.72.224-1.458.38-2.191.555-.183.046-.368.081-.553.112l-.556.1c-.371.063-.74.147-1.114.186A34.586,34.586,0,0,1,25,66.727c.183.064.376.11.565.165-.378-.1-.746-.231-1.116-.352A34.18,34.18,0,0,1,18.91,64.1l-1.185-.669-1.156-.708-.287-.175L16,62.356l-.555-.376c-.185-.125-.371-.247-.555-.374l-.537-.4-.712-.555a3.04,3.04,0,0,0,.421.273,1.068,1.068,0,0,0-.122-.119c-.091-.079-.239-.194-.442-.38a38.748,38.748,0,0,1-5.052-5.271c-.4-.494-.758-1.018-1.137-1.537-.193-.257-.357-.535-.535-.805s-.348-.547-.525-.824a29.841,29.841,0,0,1-1.806-3.532l-.218-.506c-.076-.175-.165-.354-.229-.545-.149-.379-.307-.782-.474-1.2s-.305-.875-.469-1.333c-.041-.115-.081-.232-.122-.349s-.071-.237-.106-.357c-.073-.24-.144-.483-.218-.728-.137-.539-.208-.824-.289-1.072l-.165-.646c-.053-.217-.111-.433-.149-.659-.092-.537-.2-1.072-.286-1.609s-.147-1.074-.221-1.606c.061.529.139,1.062.21,1.6s.2,1.074.3,1.613c.033.2.083.4.13.6s.092.4.14.591a8.464,8.464,0,0,1-.314-1.135,34.817,34.817,0,0,0,1.567,5.467,32.319,32.319,0,0,0,2.506,5.2,34.118,34.118,0,0,0,7.594,8.859l-1.095-.86.9.733c.147.124.3.239.459.353l.467.346a32.569,32.569,0,0,0,6.5,3.953c-.352-.14-.677-.308-.991-.451l-.9-.412a33.519,33.519,0,0,0,10.239,3.584c.449.077.9.165,1.349.212s.9.119,1.359.165l1.364.1c.226.021.456.02.683.026l.683.015c.228,0,.456.015.683.012l.685-.02.683-.02a2.965,2.965,0,0,0,.342-.013l.342-.026,1.364-.11,1.359-.181.319-.038.315-.054.632-.109.632-.107c.21-.038.418-.091.626-.135.416-.1.835-.18,1.248-.287l1.233-.341a35.266,35.266,0,0,0,4.771-1.812,36.938,36.938,0,0,0,4.436-2.5,36.87,36.87,0,0,0,4-3.13,38.01,38.01,0,0,1-4.467,3.336l-.6.379c-.2.125-.4.254-.612.366l-1.253.7-1.289.646c-.436.206-.882.394-1.321.591a34.181,34.181,0,0,0,12.284-9.129l.315-.364c.1-.122.2-.252.3-.377l.6-.756.149-.189.14-.2.281-.392.56-.784.522-.81c.165-.27.353-.535.508-.824.319-.557.66-1.1.941-1.68A34.836,34.836,0,0,0,68.174,42.9c-.094.455-.213.947-.33,1.453-.053.255-.134.5-.2.756s-.144.494-.213.746c-.036.122-.071.244-.1.364s-.078.232-.116.346c-.074.229-.147.448-.215.659s-.125.4-.18.581-.116.329-.165.476a2.8,2.8,0,0,0,.261-.469l.385-.881c.239-.553.385-.875.045.041-.076.209-.152.417-.228.621L67,47.9l-.125.3q-.256.59-.5,1.153c-.178.374-.362.736-.537,1.094-.089.176-.173.356-.266.527l-.284.506c-.188.329-.365.659-.555.975l-.568.913c-.092.148-.183.3-.277.438l-.291.415-.558.794c-1.486,2.061-2.863,3.536-3.8,4.686-.083.114.238-.13.738-.535l.825-.741.457-.417.439-.44c.289-.29.575-.565.811-.81s.429-.456.566-.593c.277-.275.317-.265-.078.268a33.3,33.3,0,0,1-2.948,3.342,34.023,34.023,0,0,1-4.611,3.853c-.129.087-.253.18-.385.264l-.4.252-.807.509c-.134.089-.274.165-.414.249l-.424.242-.86.494c-.15.069-.388.216-.69.4A35.014,35.014,0,0,1,45.357,68.5c-.482.132-.943.275-1.392.382l-1.288.293c-.2.051-.4.086-.6.117l-.56.1c-.36.059-.692.125-.991.165l-1.354.165c-.223.03-.449.044-.674.058l-.675.046c-.236,0-.456.012-.66.012s-.378-.018-.537-.03l-.849.056c-.284.018-.568.036-.852.031a36.112,36.112,0,0,1-7.1-.824l-.956-.247-.487-.13-.469-.147-.936-.292-.233-.072-.229-.084-.457-.165c.017.033.206.132-.038.074-.35-.122-.7-.234-1.047-.364l-1.032-.415c-.165-.069-.343-.133-.513-.206l-.5-.229-1-.456a36.834,36.834,0,0,1-3.828-2.164c-.244-.165-.5-.329-.716-.494l-.66-.509c-.213-.165-.423-.329-.621-.494l-.56-.494a13.446,13.446,0,0,1-1.106-.812l-.627-.512-.33-.277-.33-.3c-.444-.413-.926-.845-1.385-1.341-.234-.242-.474-.494-.713-.743l-.7-.8a36,36,0,0,1-4.7-7.083v.01a34.229,34.229,0,0,1-2.7-7.259c-.078-.425-.145-.824-.2-1.211-.1-.308-.152-.634-.215-.917S.439,40.4.4,40.241c-.021-.128-.041-.255-.063-.38S.311,39.606.3,39.483c-.028-.249-.054-.494-.081-.735s-.053-.478-.073-.712-.025-.468-.038-.7-.023-.456-.035-.68c0-.112-.012-.224-.018-.329V34.683a15.59,15.59,0,0,1-.061-1.618c0-.341.035-.677.061-1.011s.053-.659.078-.988c.068-.659.165-1.3.234-1.944.069-.371.137-.745.206-1.117l.1-.562c.04-.186.087-.371.13-.557.089-.372.177-.745.266-1.118s.213-.738.32-1.11a33.891,33.891,0,0,1,3.023-7.1,35.185,35.185,0,0,1,4.457-6.167.408.408,0,0,1,.231-.117,12.034,12.034,0,0,1,.882-.988l.464-.484.414-.413c-.087.1-.139.165-.111.165.408-.407.733-.731,1.027-1s.558-.474.811-.682l.383-.31.421-.316,1.042-.773c.38-.272.715-.552,1.085-.824.183-.132.381-.245.575-.367A50.442,50.442,0,0,1,22.6,2.059,34.273,34.273,0,0,1,30.136.186c.51-.058.943-.1,1.321-.135.192-.02.371-.026.543-.03l.5-.01L33.408,0Z" transform="translate(0.01)" fill="#ec6568"/>
      <path id="Path_14" data-name="Path 14" d="M22.488,302.036a35.43,35.43,0,0,1-3.578-6.446A51.18,51.18,0,0,0,22.488,302.036Z" transform="translate(-15.764 -246.946)" fill="#ec6568"/>
      <path id="Path_15" data-name="Path 15" d="M330.605,320.678l.479-.592c.166-.2.311-.429.472-.652.318-.452.655-.924.959-1.445a36,36,0,0,1-13.506,13.258H319a37.184,37.184,0,0,0,6.983-5.086l.781-.745c.254-.249.487-.509.725-.757s.471-.487.682-.738.417-.5.615-.728c.406-.464.738-.936,1.051-1.353.151-.213.3-.407.427-.605S330.5,320.851,330.605,320.678Z" transform="translate(-266.449 -265.776)" fill="#ec6568"/>
      <path id="Path_16" data-name="Path 16" d="M65.494,363.911c-.076-.062-.166-.141-.269-.224l-.015-.017C65.293,363.735,65.39,363.816,65.494,363.911Z" transform="translate(-54.366 -303.861)" fill="#ec6568"/>
      <path id="Path_17" data-name="Path 17" d="M406.35,263.607l.166-.567-.294,1.082c-.047.181-.1.359-.166.537l-.176.532c-.218.718-.5,1.413-.77,2.113C405.532,266.192,405.991,264.93,406.35,263.607Z" transform="translate(-338.242 -219.738)" fill="#ec6568"/>
      <path id="Path_18" data-name="Path 18" d="M369.887,79.834c-.035-.188-.065-.377-.106-.564l-.131-.56c-.09-.371-.166-.747-.268-1.116l-.318-1.1c-.057-.183-.1-.369-.166-.55l-.186-.544a34.136,34.136,0,0,0-1.751-4.24,37.009,37.009,0,0,0-6.551-9.407,37.709,37.709,0,0,1,3.36,3.917,36.58,36.58,0,0,1,2.74,4.384A34.323,34.323,0,0,1,369.887,79.834Z" transform="translate(-300.974 -51.483)" fill="#ec6568"/>
      <path id="Path_19" data-name="Path 19" d="M421,249.031c.095-.314.2-.628.286-.946l.249-.963c.18-.64.3-1.3.437-1.952-.125.665-.229,1.318-.4,1.964l-.229.973c-.083.321-.181.638-.271.958C421.126,248.816,421.037,249.011,421,249.031Z" transform="translate(-351.49 -204.808)" fill="#ec6568"/>
      <path id="Path_20" data-name="Path 20" d="M375.346,330.178c.185-.246.357-.5.535-.748-.424.665-.9,1.285-1.372,1.92Z" transform="translate(-312.729 -275.18)" fill="#ec6568"/>
      <path id="Path_21" data-name="Path 21" d="M428.78,184c.066.489.091.979.125,1.468l.05.732c.022.243.013.487.022.732-.017-.58-.1-1.152-.166-1.726v-.544C428.81,184.451,428.795,184.244,428.78,184Z" transform="translate(-357.976 -153.704)" fill="#ec6568"/>
      <path id="Path_22" data-name="Path 22" d="M388.331,81.51c-.166-.289-.357-.567-.534-.848s-.349-.56-.534-.831-.374-.53-.557-.793-.361-.525-.557-.768a34.846,34.846,0,0,1,2.62,3.922C388.569,81.895,388.41,81.662,388.331,81.51Z" transform="translate(-322.434 -65.384)" fill="#ec6568"/>
    </g>
  </g>
</svg>
